<svg width="1920" height="1080" viewBox="0 0 1920 1080" fill="none" xmlns="http://www.w3.org/2000/svg">
<g clip-path="url(#clip0_153_2977)">
<rect width="1920" height="1080" fill="white"/>
<path d="M663.67 587.563C546.888 587.563 172.564 484.521 0 433V813H1453L1446.98 476.73C1365.71 519.706 1144.49 563.879 1027.11 574.746C888.655 587.563 771.271 587.563 663.67 587.563Z" fill="#FBFBFB" stroke="#DEDEDE" stroke-width="2"/>
<path d="M288.508 636.343C181.332 600.243 52.1794 563.642 1 549.854V731.857L67.2322 778.486L771.702 874L1464.13 746.146L1641 422L1448.32 476.15C1342.95 647.022 999.25 701.272 840.945 707.79C691.621 727.645 410.436 668.432 288.508 636.343Z" fill="#8EEFFE" stroke="#96CAD2"/>
<path d="M517.561 798.445C216.503 641.947 42.8936 654.737 2 667.528V872.179L419.717 973L814.103 921.837H1160.32L1383.1 872.179L1639 423L1538.15 448.581L1431.27 625.394C1362.03 727.72 1304.58 743.771 1267.95 752.549C1178.38 774.012 1077.53 733.739 904.42 779.635C653.338 829.594 657.553 859.388 517.561 798.445Z" fill="#51CFE2"/>
<path d="M119.726 781.803C29.3667 781.803 2.25898 801.372 0 811.156V1052H1426.92L1698 410L1639.27 422.795L1532.34 592.891C1462.31 699.766 1429.18 769.008 1292.89 861.583C1183.86 935.642 1071.51 806.517 820.763 881.904C592.455 950.544 478.904 935.341 421.676 920.288C346.133 900.418 210.085 781.803 119.726 781.803Z" fill="#36B5C8" stroke="#0098AF"/>
<path d="M141.054 907.196C69.3706 907.196 17.8166 959.352 1 985.429V1093H1942.94C1942.94 837.99 1979.29 299.226 1942.94 227.923C1918.5 180 1948.21 170 1863.12 170C1769.15 170 1563.94 644.413 1454.25 881.62C1333.77 1108.04 1058.94 939.543 860.903 939.543C662.87 939.543 608.655 1019.28 458.812 1019.28C308.969 1019.28 230.659 907.196 141.054 907.196Z" fill="#80746D" stroke="#615751"/>
<path d="M732 865.537L720.924 862.272L723.634 873.496L732 865.537ZM375.615 814.923C389.664 820.781 403.064 830.614 419.259 841.311C435.414 851.981 454.227 863.417 478.937 872.298C528.373 890.067 601.234 897.55 723.494 868.619L723.034 866.673C601.022 895.545 528.577 888.016 479.613 870.416C455.122 861.614 436.462 850.277 420.361 839.642C404.3 829.034 390.662 819.03 376.385 813.077L375.615 814.923Z" fill="#51BCCC"/>
<path d="M1190 829.468L1178.94 826.158L1181.6 837.394L1190 829.468ZM886.333 826.943C941.985 807.286 995.396 812.65 1045.1 820.976C1069.92 825.133 1093.89 830.041 1116.65 832.896C1139.42 835.753 1161.1 836.573 1181.44 832.525L1181.05 830.563C1161.02 834.55 1139.58 833.758 1116.9 830.912C1094.19 828.063 1070.36 823.177 1045.43 819.003C995.657 810.666 941.82 805.223 885.667 825.057L886.333 826.943Z" fill="#51BCCC"/>
<path d="M1536 513L1526.64 519.759L1537.17 524.487L1536 513ZM1341.51 773.861C1354.77 766.016 1371.35 750.602 1389.22 730.905C1407.11 711.188 1426.37 687.108 1444.99 661.858C1482.21 611.371 1516.96 556.128 1533.22 521.637L1531.41 520.784C1515.23 555.107 1480.57 610.231 1443.38 660.671C1424.78 685.885 1405.57 709.909 1387.74 729.561C1369.89 749.234 1353.48 764.456 1340.49 772.139L1341.51 773.861Z" fill="#51BCCC"/>
<path d="M1162 710L1151.48 705.23L1152.61 716.722L1162 710ZM875.154 746.988C943.45 736.359 1069.82 720.181 1153.15 711.873L1152.95 709.883C1069.58 718.195 943.181 734.376 874.846 745.012L875.154 746.988Z" fill="#92D8E3"/>
<path d="M730 768.681L718.736 766.139L722.167 777.165L730 768.681ZM425.687 713.95C440.635 718.884 459.844 726.888 482.005 735.678C504.144 744.458 529.181 754.002 555.704 761.976C608.728 777.916 667.822 787.622 721.695 772.312L721.148 770.388C667.829 785.541 609.184 775.965 556.28 760.06C529.84 752.112 504.867 742.593 482.743 733.818C460.642 725.053 441.336 717.009 426.313 712.05L425.687 713.95Z" fill="#92D8E3"/>
<path d="M1462.5 512L1453.35 519.046L1464.03 523.446L1462.5 512ZM1285.46 679.89C1309.25 667.678 1344.98 645.389 1378.7 617.426C1412.41 589.477 1444.2 555.777 1459.99 520.722L1458.16 519.901C1442.56 554.541 1411.05 588.005 1377.43 615.887C1343.82 643.754 1308.21 665.962 1284.54 678.11L1285.46 679.89Z" fill="#92D8E3"/>
<path d="M542.969 745.973L545.94 729.194L549.201 729.771L546.23 746.55L542.969 745.973ZM554.941 748.336C553.932 748.157 553.056 747.832 552.311 747.359C551.569 746.87 550.967 746.276 550.506 745.577C550.047 744.862 549.729 744.09 549.551 743.263C549.388 742.438 549.382 741.6 549.533 740.749C549.739 739.583 550.187 738.566 550.877 737.697C551.586 736.815 552.48 736.169 553.56 735.759C554.64 735.349 555.85 735.262 557.189 735.499C558.528 735.736 559.627 736.232 560.485 736.985C561.342 737.738 561.924 738.629 562.229 739.658L558.966 740.055C558.779 739.551 558.486 739.141 558.087 738.827C557.69 738.497 557.224 738.284 556.688 738.189C556.09 738.083 555.51 738.143 554.95 738.369C554.409 738.582 553.946 738.947 553.562 739.464C553.181 739.965 552.925 740.586 552.794 741.326C552.666 742.051 552.693 742.722 552.876 743.34C553.078 743.944 553.394 744.455 553.823 744.872C554.256 745.274 554.772 745.528 555.37 745.633C555.749 745.7 556.114 745.7 556.467 745.633C556.836 745.568 557.174 745.449 557.481 745.276C557.788 745.103 558.03 744.886 558.206 744.624L561.134 746.118C560.742 746.682 560.227 747.159 559.589 747.55C558.967 747.944 558.26 748.217 557.47 748.369C556.697 748.509 555.854 748.498 554.941 748.336ZM568.141 750.673C567.149 750.497 566.28 750.173 565.535 749.7C564.793 749.211 564.19 748.625 563.726 747.941C563.265 747.242 562.943 746.487 562.762 745.675C562.599 744.85 562.593 744.012 562.744 743.161C562.953 741.979 563.404 740.946 564.097 740.062C564.806 739.18 565.7 738.534 566.78 738.124C567.879 737.701 569.097 737.608 570.437 737.845C571.792 738.085 572.897 738.589 573.752 739.358C574.609 740.111 575.204 741.021 575.535 742.087C575.885 743.14 575.961 744.226 575.763 745.344C575.729 745.533 575.687 745.729 575.635 745.931C575.585 746.117 575.542 746.272 575.504 746.395L565.932 744.701C565.884 745.342 565.967 745.925 566.183 746.451C566.415 746.979 566.744 747.412 567.172 747.747C567.619 748.07 568.118 748.28 568.669 748.378C569.299 748.49 569.917 748.444 570.521 748.243C571.144 748.028 571.603 747.687 571.897 747.219L574.481 748.456C574.07 749.033 573.537 749.516 572.884 749.904C572.246 750.295 571.524 750.565 570.717 750.715C569.914 750.849 569.055 750.835 568.141 750.673ZM566.217 742.679L572.693 743.826C572.741 743.184 572.656 742.609 572.438 742.099C572.238 741.576 571.924 741.147 571.496 740.811C571.071 740.459 570.566 740.232 569.984 740.129C569.416 740.028 568.873 740.07 568.353 740.254C567.851 740.426 567.409 740.721 567.026 741.141C566.661 741.547 566.392 742.06 566.217 742.679ZM582.572 752.984L585.543 736.205L596.815 738.201L596.309 741.06L588.298 739.642L587.532 743.967L594.196 745.147L593.728 747.794L587.063 746.614L585.833 753.562L582.572 752.984ZM598.866 738.076L602.032 738.637L599.681 751.919C599.581 752.486 599.607 752.889 599.76 753.127C599.915 753.349 600.158 753.49 600.489 753.548C600.741 753.593 601.007 753.608 601.286 753.592C601.565 753.576 601.815 753.539 602.037 753.481L602.035 755.967C601.574 756.097 601.049 756.166 600.463 756.176C599.876 756.186 599.354 756.15 598.897 756.07C597.905 755.894 597.179 755.497 596.719 754.88C596.279 754.249 596.145 753.445 596.318 752.469L598.866 738.076ZM609.013 757.909C608.004 757.731 607.128 757.405 606.383 756.932C605.641 756.443 605.039 755.849 604.578 755.15C604.132 754.453 603.828 753.693 603.666 752.868C603.503 752.043 603.497 751.205 603.648 750.354C603.801 749.488 604.096 748.695 604.532 747.976C604.968 747.257 605.515 746.647 606.172 746.146C606.845 745.648 607.613 745.304 608.475 745.116C609.34 744.911 610.276 744.898 611.285 745.077C612.293 745.255 613.16 745.588 613.887 746.074C614.632 746.547 615.235 747.133 615.696 747.832C616.157 748.531 616.461 749.292 616.608 750.114C616.771 750.939 616.775 751.785 616.622 752.651C616.471 753.502 616.178 754.287 615.742 755.006C615.322 755.728 614.775 756.338 614.102 756.836C613.444 757.337 612.683 757.69 611.818 757.894C610.956 758.083 610.021 758.088 609.013 757.909ZM606.909 750.932C606.781 751.656 606.808 752.327 606.991 752.945C607.177 753.546 607.486 754.048 607.919 754.45C608.352 754.851 608.875 755.106 609.49 755.215C610.088 755.321 610.66 755.26 611.204 755.031C611.751 754.787 612.215 754.414 612.596 753.913C612.996 753.399 613.26 752.779 613.388 752.054C613.514 751.345 613.477 750.681 613.278 750.061C613.095 749.443 612.787 748.934 612.355 748.532C611.922 748.131 611.406 747.877 610.808 747.771C610.193 747.662 609.613 747.73 609.066 747.974C608.521 748.203 608.057 748.576 607.673 749.093C607.292 749.594 607.037 750.207 606.909 750.932ZM634.805 749.46L637.807 749.992L630.439 761.459L627.792 760.99L626.654 755.305L623.68 760.262L621.009 759.789L618.05 746.494L621.028 747.021L623.057 757.032L625.215 753.246L624.001 747.572L626.624 748.036L627.231 752.043L629.2 748.492L631.824 748.957L628.736 753.87L629.486 758.17L634.805 749.46Z" fill="#56B1C0"/>
<path d="M475.929 852.34L480.36 835.886L483.558 836.747L479.127 853.201L475.929 852.34ZM487.648 855.744C486.659 855.478 485.814 855.076 485.114 854.54C484.417 853.988 483.87 853.343 483.472 852.606C483.078 851.854 482.828 851.058 482.723 850.217C482.634 849.381 482.701 848.546 482.926 847.712C483.234 846.569 483.769 845.594 484.533 844.789C485.316 843.973 486.264 843.408 487.376 843.094C488.487 842.78 489.7 842.8 491.013 843.154C492.326 843.508 493.377 844.097 494.166 844.923C494.954 845.748 495.455 846.687 495.669 847.738L492.384 847.848C492.242 847.329 491.986 846.896 491.615 846.547C491.249 846.184 490.804 845.931 490.278 845.79C489.691 845.632 489.109 845.64 488.531 845.816C487.973 845.981 487.481 846.304 487.053 846.785C486.629 847.251 486.319 847.847 486.124 848.573C485.932 849.284 485.901 849.955 486.029 850.586C486.177 851.205 486.447 851.742 486.838 852.195C487.234 852.633 487.726 852.931 488.313 853.09C488.683 853.189 489.048 853.221 489.405 853.185C489.779 853.153 490.126 853.064 490.447 852.919C490.767 852.773 491.027 852.578 491.226 852.333L494.012 854.077C493.571 854.605 493.016 855.036 492.347 855.369C491.692 855.706 490.965 855.916 490.164 855.999C489.382 856.07 488.544 855.985 487.648 855.744ZM500.592 859.23C499.619 858.968 498.782 858.568 498.081 858.032C497.385 857.48 496.836 856.843 496.433 856.121C496.035 855.385 495.782 854.604 495.672 853.779C495.583 852.943 495.65 852.108 495.875 851.273C496.187 850.115 496.727 849.125 497.494 848.304C498.278 847.488 499.225 846.923 500.337 846.609C501.468 846.284 502.691 846.299 504.004 846.652C505.333 847.01 506.389 847.609 507.173 848.45C507.962 849.276 508.474 850.234 508.711 851.325C508.967 852.405 508.947 853.493 508.652 854.59C508.602 854.775 508.542 854.966 508.473 855.163C508.407 855.344 508.35 855.495 508.301 855.614L498.916 853.087C498.811 853.721 498.843 854.31 499.012 854.852C499.196 855.399 499.487 855.858 499.884 856.23C500.3 856.591 500.779 856.844 501.32 856.99C501.938 857.156 502.556 857.166 503.176 857.018C503.816 856.858 504.302 856.559 504.636 856.118L507.102 857.578C506.642 858.117 506.069 858.551 505.384 858.88C504.714 859.213 503.971 859.419 503.155 859.497C502.342 859.56 501.488 859.471 500.592 859.23ZM499.377 851.098L505.727 852.808C505.831 852.173 505.797 851.592 505.624 851.065C505.471 850.527 505.196 850.072 504.799 849.7C504.406 849.312 503.924 849.042 503.352 848.888C502.796 848.738 502.251 848.732 501.717 848.87C501.202 848.996 500.736 849.252 500.317 849.636C499.918 850.009 499.605 850.497 499.377 851.098ZM514.765 862.798L519.196 846.344L530.25 849.321L529.495 852.125L521.638 850.009L520.496 854.25L527.032 856.01L526.333 858.606L519.798 856.846L517.963 863.659L514.765 862.798ZM532.303 849.377L535.408 850.213L531.901 863.237C531.751 863.793 531.742 864.196 531.874 864.447C532.009 864.683 532.239 864.844 532.563 864.931C532.811 864.998 533.074 865.036 533.353 865.044C533.632 865.053 533.885 865.039 534.111 865L533.891 867.476C533.42 867.565 532.892 867.588 532.307 867.546C531.721 867.505 531.205 867.424 530.757 867.303C529.783 867.041 529.095 866.582 528.691 865.927C528.308 865.26 528.245 864.448 528.503 863.49L532.303 849.377ZM540.672 870.023C539.683 869.756 538.838 869.355 538.138 868.818C537.441 868.266 536.894 867.622 536.496 866.885C536.113 866.152 535.877 865.368 535.787 864.532C535.698 863.696 535.765 862.861 535.99 862.026C536.219 861.177 536.582 860.413 537.079 859.735C537.577 859.057 538.175 858.497 538.874 858.056C539.588 857.618 540.383 857.343 541.258 857.231C542.137 857.103 543.071 857.173 544.06 857.439C545.049 857.705 545.884 858.112 546.565 858.66C547.265 859.197 547.815 859.834 548.213 860.571C548.611 861.307 548.847 862.092 548.921 862.924C549.011 863.76 548.941 864.603 548.713 865.452C548.488 866.287 548.127 867.043 547.629 867.721C547.148 868.403 546.549 868.963 545.835 869.4C545.136 869.841 544.347 870.126 543.468 870.254C542.592 870.366 541.66 870.289 540.672 870.023ZM539.188 862.887C538.997 863.598 538.965 864.269 539.093 864.9C539.226 865.516 539.49 866.043 539.886 866.481C540.281 866.918 540.78 867.219 541.383 867.381C541.97 867.539 542.545 867.528 543.107 867.348C543.673 867.152 544.168 866.822 544.592 866.356C545.035 865.879 545.353 865.285 545.544 864.574C545.731 863.879 545.753 863.214 545.609 862.579C545.481 861.947 545.219 861.413 544.823 860.975C544.427 860.537 543.936 860.239 543.349 860.081C542.746 859.919 542.162 859.935 541.596 860.131C541.033 860.311 540.538 860.641 540.111 861.123C539.687 861.589 539.379 862.177 539.188 862.887ZM567.106 863.869L570.049 864.661L561.704 875.438L559.108 874.739L558.473 868.976L555.076 873.653L552.457 872.948L550.675 859.444L553.595 860.23L554.739 870.381L557.22 866.799L556.509 861.04L559.081 861.733L559.334 865.777L561.607 862.413L564.18 863.106L560.673 867.729L561.043 872.078L567.106 863.869Z" fill="#3F9CA9"/>
<path d="M368.385 946.829L373.811 930.676L376.95 931.731L371.524 947.884L368.385 946.829ZM379.873 950.942C378.903 950.615 378.084 950.163 377.417 949.585C376.756 948.991 376.249 948.315 375.897 947.555C375.549 946.78 375.349 945.97 375.295 945.125C375.257 944.285 375.375 943.455 375.65 942.636C376.027 941.514 376.621 940.574 377.433 939.817C378.264 939.05 379.244 938.544 380.373 938.299C381.502 938.053 382.711 938.147 384 938.58C385.29 939.013 386.303 939.666 387.039 940.538C387.776 941.41 388.219 942.377 388.368 943.44L385.082 943.349C384.972 942.823 384.743 942.374 384.395 942.004C384.051 941.619 383.622 941.339 383.106 941.166C382.53 940.973 381.948 940.946 381.361 941.086C380.794 941.216 380.282 941.509 379.826 941.963C379.375 942.402 379.029 942.978 378.79 943.691C378.555 944.389 378.483 945.056 378.572 945.694C378.682 946.322 378.919 946.874 379.282 947.35C379.65 947.812 380.123 948.139 380.699 948.333C381.063 948.455 381.425 948.509 381.784 948.495C382.158 948.485 382.51 948.418 382.839 948.292C383.169 948.166 383.44 947.987 383.653 947.755L386.327 949.666C385.856 950.166 385.275 950.562 384.587 950.854C383.913 951.151 383.174 951.316 382.369 951.35C381.585 951.373 380.753 951.237 379.873 950.942ZM392.581 955.21C391.626 954.889 390.815 954.44 390.148 953.861C389.487 953.268 388.977 952.599 388.62 951.854C388.267 951.094 388.062 950.3 388.003 949.47C387.964 948.63 388.083 947.8 388.358 946.981C388.74 945.844 389.339 944.889 390.156 944.116C390.987 943.349 391.967 942.843 393.096 942.598C394.245 942.342 395.465 942.431 396.754 942.864C398.058 943.303 399.076 943.965 399.808 944.852C400.544 945.724 400.997 946.712 401.167 947.815C401.357 948.909 401.271 949.994 400.909 951.071C400.848 951.253 400.776 951.44 400.695 951.632C400.619 951.809 400.553 951.955 400.497 952.072L391.283 948.976C391.14 949.603 391.136 950.193 391.271 950.745C391.421 951.302 391.683 951.778 392.057 952.173C392.451 952.559 392.913 952.841 393.444 953.019C394.051 953.223 394.668 953.27 395.295 953.16C395.943 953.04 396.447 952.77 396.808 952.351L399.179 953.958C398.687 954.468 398.089 954.866 397.385 955.153C396.697 955.445 395.942 955.605 395.123 955.634C394.308 955.647 393.461 955.506 392.581 955.21ZM391.864 947.02L398.098 949.114C398.241 948.487 398.242 947.905 398.102 947.368C397.982 946.821 397.735 946.35 397.361 945.955C396.993 945.544 396.528 945.244 395.967 945.056C395.421 944.872 394.877 944.833 394.335 944.938C393.814 945.033 393.333 945.26 392.892 945.618C392.471 945.966 392.128 946.433 391.864 947.02ZM406.51 959.636L411.936 943.483L422.788 947.129L421.863 949.881L414.151 947.291L412.752 951.454L419.168 953.609L418.312 956.157L411.896 954.002L409.649 960.691L406.51 959.636ZM424.834 947.31L427.883 948.334L423.588 961.119C423.404 961.665 423.37 962.068 423.486 962.326C423.607 962.569 423.827 962.744 424.145 962.851C424.388 962.933 424.648 962.986 424.926 963.012C425.205 963.038 425.458 963.039 425.685 963.014L425.315 965.472C424.84 965.532 424.311 965.523 423.729 965.446C423.148 965.369 422.637 965.256 422.197 965.108C421.241 964.787 420.582 964.287 420.22 963.609C419.877 962.92 419.864 962.105 420.18 961.165L424.834 947.31ZM431.928 968.428C430.957 968.102 430.138 967.649 429.472 967.071C428.81 966.478 428.304 965.801 427.951 965.041C427.614 964.286 427.426 963.489 427.387 962.649C427.349 961.809 427.467 960.98 427.742 960.161C428.023 959.326 428.432 958.586 428.969 957.94C429.507 957.293 430.138 956.771 430.863 956.373C431.602 955.98 432.413 955.754 433.293 955.696C434.179 955.622 435.107 955.748 436.078 956.074C437.048 956.4 437.857 956.857 438.503 957.446C439.17 958.024 439.679 958.693 440.031 959.453C440.384 960.213 440.572 961.01 440.595 961.845C440.634 962.685 440.513 963.522 440.232 964.356C439.957 965.175 439.551 965.908 439.013 966.554C438.49 967.206 437.859 967.728 437.12 968.121C436.395 968.519 435.59 968.755 434.705 968.829C433.824 968.887 432.898 968.754 431.928 968.428ZM430.882 961.215C430.648 961.913 430.575 962.581 430.665 963.218C430.759 963.841 430.991 964.383 431.359 964.844C431.728 965.305 432.207 965.635 432.799 965.834C433.375 966.028 433.95 966.052 434.522 965.906C435.099 965.746 435.613 965.446 436.064 965.007C436.536 964.558 436.889 963.984 437.123 963.287C437.353 962.604 437.415 961.941 437.31 961.299C437.22 960.661 436.992 960.111 436.623 959.65C436.255 959.189 435.783 958.861 435.206 958.668C434.615 958.469 434.03 958.45 433.453 958.61C432.881 958.756 432.367 959.056 431.911 959.51C431.459 959.949 431.116 960.518 430.882 961.215ZM458.688 963.897L461.577 964.868L452.59 975.116L450.042 974.26L449.76 968.468L446.084 972.93L443.513 972.066L442.558 958.479L445.425 959.442L445.947 969.643L448.642 966.219L448.283 960.427L450.809 961.276L450.815 965.329L453.289 962.109L455.814 962.957L452.032 967.358L452.135 971.722L458.688 963.897Z" fill="#358D9A"/>
<path d="M578 970.522L566.885 967.394L569.733 978.584L578 970.522ZM249.886 897.993C267.521 900.02 283.584 908.774 301.022 920.138C318.411 931.47 337.175 945.405 359.999 957.496C405.762 981.74 467.946 998.651 569.502 973.717L569.025 971.775C467.94 996.593 406.26 979.741 360.936 955.729C338.217 943.693 319.63 929.877 302.114 918.462C284.646 907.079 268.247 898.09 250.114 896.007L249.886 897.993Z" fill="#22A1B4"/>
<path d="M1072.6 925.499L1072.89 924.541L1072.89 924.54L1072.6 925.499ZM1269 935.415L1257.63 937.435L1265.07 946.271L1269 935.415ZM889.044 907.43C923.364 905.907 1008.07 907.589 1072.32 926.459L1072.89 924.54C1008.32 905.579 923.362 903.905 888.956 905.432L889.044 907.43ZM1072.32 926.457C1096.31 933.647 1133.37 944.66 1169.63 950.335C1187.76 953.173 1205.72 954.682 1221.79 953.7C1237.83 952.72 1252.08 949.247 1262.67 942.038L1261.55 940.384C1251.37 947.307 1237.54 950.734 1221.66 951.704C1205.8 952.673 1187.99 951.185 1169.94 948.359C1133.83 942.708 1096.9 931.734 1072.89 924.541L1072.32 926.457Z" fill="#22A1B4"/>
<path d="M1604 515L1593.97 520.721L1603.94 526.547L1604 515ZM1410.86 847.505L1600.32 523.275L1598.6 522.266L1409.14 846.495L1410.86 847.505Z" fill="#22A1B4"/>
<path d="M1473.96 289.778C1473.96 291.138 1473.61 292.283 1472.91 293.212C1472.21 294.119 1471.26 294.81 1470.05 295.286C1468.88 295.762 1467.58 296 1466.18 296H1454.52V271.86H1467.44C1468.57 271.86 1469.54 272.166 1470.36 272.778C1471.2 273.367 1471.83 274.138 1472.26 275.09C1472.72 276.019 1472.94 276.994 1472.94 278.014C1472.94 279.17 1472.65 280.269 1472.06 281.312C1471.47 282.355 1470.61 283.125 1469.48 283.624C1470.86 284.032 1471.95 284.769 1472.74 285.834C1473.56 286.899 1473.96 288.214 1473.96 289.778ZM1469.24 288.894C1469.24 288.282 1469.11 287.738 1468.86 287.262C1468.61 286.763 1468.27 286.378 1467.84 286.106C1467.44 285.811 1466.96 285.664 1466.42 285.664H1459.21V292.022H1466.18C1466.74 292.022 1467.25 291.886 1467.71 291.614C1468.18 291.319 1468.56 290.934 1468.83 290.458C1469.1 289.982 1469.24 289.461 1469.24 288.894ZM1459.21 275.872V281.958H1465.46C1465.99 281.958 1466.46 281.833 1466.89 281.584C1467.32 281.335 1467.66 280.983 1467.91 280.53C1468.18 280.077 1468.32 279.533 1468.32 278.898C1468.32 278.286 1468.2 277.753 1467.95 277.3C1467.72 276.847 1467.4 276.495 1466.99 276.246C1466.61 275.997 1466.17 275.872 1465.67 275.872H1459.21ZM1477.15 271.18H1481.71V290.288C1481.71 291.104 1481.84 291.659 1482.11 291.954C1482.39 292.226 1482.76 292.362 1483.24 292.362C1483.6 292.362 1483.97 292.317 1484.36 292.226C1484.74 292.135 1485.08 292.022 1485.38 291.886L1485.99 295.354C1485.38 295.649 1484.66 295.875 1483.85 296.034C1483.03 296.193 1482.29 296.272 1481.64 296.272C1480.21 296.272 1479.1 295.898 1478.31 295.15C1477.53 294.379 1477.15 293.291 1477.15 291.886V271.18ZM1487.8 289.336V278.184H1492.36V288.35C1492.36 289.71 1492.61 290.741 1493.11 291.444C1493.61 292.124 1494.34 292.464 1495.32 292.464C1495.91 292.464 1496.49 292.351 1497.05 292.124C1497.64 291.875 1498.17 291.512 1498.65 291.036C1499.15 290.56 1499.57 289.959 1499.91 289.234V278.184H1504.46V290.9C1504.46 291.376 1504.54 291.716 1504.7 291.92C1504.88 292.124 1505.17 292.249 1505.55 292.294V296C1505.1 296.068 1504.71 296.113 1504.4 296.136C1504.1 296.181 1503.83 296.204 1503.58 296.204C1502.76 296.204 1502.1 296.023 1501.57 295.66C1501.08 295.275 1500.78 294.753 1500.69 294.096L1500.59 292.668C1499.8 293.869 1498.78 294.787 1497.53 295.422C1496.28 296.034 1494.91 296.34 1493.41 296.34C1491.58 296.34 1490.18 295.751 1489.23 294.572C1488.28 293.371 1487.8 291.625 1487.8 289.336ZM1517.25 296.34C1515.83 296.34 1514.53 296.102 1513.38 295.626C1512.22 295.127 1511.24 294.459 1510.42 293.62C1509.6 292.759 1508.97 291.784 1508.52 290.696C1508.09 289.585 1507.87 288.418 1507.87 287.194C1507.87 285.494 1508.24 283.941 1508.99 282.536C1509.76 281.131 1510.85 280.009 1512.26 279.17C1513.68 278.309 1515.36 277.878 1517.29 277.878C1519.24 277.878 1520.9 278.309 1522.29 279.17C1523.67 280.009 1524.72 281.131 1525.45 282.536C1526.2 283.919 1526.57 285.415 1526.57 287.024C1526.57 287.296 1526.56 287.579 1526.54 287.874C1526.51 288.146 1526.49 288.373 1526.47 288.554H1512.7C1512.79 289.461 1513.05 290.254 1513.48 290.934C1513.93 291.614 1514.5 292.135 1515.18 292.498C1515.88 292.838 1516.63 293.008 1517.42 293.008C1518.33 293.008 1519.18 292.793 1519.97 292.362C1520.79 291.909 1521.35 291.319 1521.64 290.594L1525.55 291.682C1525.12 292.589 1524.5 293.393 1523.68 294.096C1522.89 294.799 1521.95 295.354 1520.86 295.762C1519.77 296.147 1518.57 296.34 1517.25 296.34ZM1512.6 285.664H1521.91C1521.82 284.757 1521.56 283.975 1521.13 283.318C1520.72 282.638 1520.18 282.117 1519.5 281.754C1518.82 281.369 1518.06 281.176 1517.22 281.176C1516.4 281.176 1515.66 281.369 1514.98 281.754C1514.32 282.117 1513.77 282.638 1513.34 283.318C1512.94 283.975 1512.69 284.757 1512.6 285.664ZM1537.96 296V271.86H1542.65V296H1537.96ZM1555.24 296.34C1553.79 296.34 1552.49 296.102 1551.33 295.626C1550.17 295.127 1549.19 294.447 1548.37 293.586C1547.56 292.702 1546.92 291.705 1546.47 290.594C1546.04 289.483 1545.82 288.316 1545.82 287.092C1545.82 285.415 1546.2 283.885 1546.94 282.502C1547.71 281.097 1548.8 279.975 1550.21 279.136C1551.61 278.297 1553.28 277.878 1555.21 277.878C1557.13 277.878 1558.79 278.297 1560.17 279.136C1561.55 279.975 1562.58 281.074 1563.26 282.434L1558.81 283.794C1558.42 283.137 1557.91 282.638 1557.28 282.298C1556.64 281.935 1555.94 281.754 1555.17 281.754C1554.31 281.754 1553.52 281.981 1552.79 282.434C1552.09 282.865 1551.53 283.488 1551.13 284.304C1550.72 285.097 1550.51 286.027 1550.51 287.092C1550.51 288.135 1550.72 289.064 1551.13 289.88C1551.56 290.673 1552.12 291.308 1552.83 291.784C1553.53 292.237 1554.31 292.464 1555.17 292.464C1555.72 292.464 1556.23 292.373 1556.7 292.192C1557.2 292.011 1557.64 291.761 1558.03 291.444C1558.41 291.127 1558.7 290.764 1558.88 290.356L1563.33 291.716C1562.92 292.6 1562.32 293.393 1561.53 294.096C1560.76 294.799 1559.84 295.354 1558.78 295.762C1557.73 296.147 1556.55 296.34 1555.24 296.34ZM1574.23 296.34C1572.8 296.34 1571.51 296.102 1570.35 295.626C1569.2 295.127 1568.21 294.459 1567.4 293.62C1566.58 292.759 1565.95 291.784 1565.49 290.696C1565.06 289.585 1564.85 288.418 1564.85 287.194C1564.85 285.494 1565.22 283.941 1565.97 282.536C1566.74 281.131 1567.83 280.009 1569.23 279.17C1570.66 278.309 1572.34 277.878 1574.26 277.878C1576.21 277.878 1577.88 278.309 1579.26 279.17C1580.65 280.009 1581.7 281.131 1582.42 282.536C1583.17 283.919 1583.55 285.415 1583.55 287.024C1583.55 287.296 1583.54 287.579 1583.51 287.874C1583.49 288.146 1583.47 288.373 1583.44 288.554H1569.67C1569.77 289.461 1570.03 290.254 1570.46 290.934C1570.91 291.614 1571.48 292.135 1572.16 292.498C1572.86 292.838 1573.61 293.008 1574.4 293.008C1575.31 293.008 1576.16 292.793 1576.95 292.362C1577.77 291.909 1578.32 291.319 1578.62 290.594L1582.53 291.682C1582.1 292.589 1581.47 293.393 1580.66 294.096C1579.86 294.799 1578.92 295.354 1577.83 295.762C1576.75 296.147 1575.55 296.34 1574.23 296.34ZM1569.57 285.664H1578.89C1578.8 284.757 1578.54 283.975 1578.11 283.318C1577.7 282.638 1577.15 282.117 1576.47 281.754C1575.79 281.369 1575.04 281.176 1574.2 281.176C1573.38 281.176 1572.63 281.369 1571.95 281.754C1571.3 282.117 1570.75 282.638 1570.32 283.318C1569.91 283.975 1569.66 284.757 1569.57 285.664ZM1600.43 271.86H1605.19L1614.07 296H1609.24L1606.99 289.982H1598.56L1596.35 296H1591.52L1600.43 271.86ZM1606.14 286.684L1602.81 276.722L1599.34 286.684H1606.14ZM1626.88 282.128C1625.5 282.128 1624.26 282.4 1623.17 282.944C1622.09 283.465 1621.3 284.225 1620.83 285.222V296H1616.27V278.184H1620.45V281.992C1621.09 280.768 1621.89 279.805 1622.87 279.102C1623.84 278.399 1624.87 278.014 1625.96 277.946C1626.21 277.946 1626.4 277.946 1626.54 277.946C1626.68 277.946 1626.79 277.957 1626.88 277.98V282.128ZM1637.45 296.34C1636.02 296.34 1634.73 296.102 1633.57 295.626C1632.42 295.127 1631.43 294.459 1630.62 293.62C1629.8 292.759 1629.16 291.784 1628.71 290.696C1628.28 289.585 1628.07 288.418 1628.07 287.194C1628.07 285.494 1628.44 283.941 1629.19 282.536C1629.96 281.131 1631.05 280.009 1632.45 279.17C1633.88 278.309 1635.56 277.878 1637.48 277.878C1639.43 277.878 1641.1 278.309 1642.48 279.17C1643.86 280.009 1644.92 281.131 1645.64 282.536C1646.39 283.919 1646.77 285.415 1646.77 287.024C1646.77 287.296 1646.75 287.579 1646.73 287.874C1646.71 288.146 1646.69 288.373 1646.66 288.554H1632.89C1632.98 289.461 1633.24 290.254 1633.68 290.934C1634.13 291.614 1634.7 292.135 1635.38 292.498C1636.08 292.838 1636.83 293.008 1637.62 293.008C1638.53 293.008 1639.38 292.793 1640.17 292.362C1640.99 291.909 1641.54 291.319 1641.84 290.594L1645.75 291.682C1645.31 292.589 1644.69 293.393 1643.88 294.096C1643.08 294.799 1642.14 295.354 1641.05 295.762C1639.97 296.147 1638.76 296.34 1637.45 296.34ZM1632.79 285.664H1642.11C1642.02 284.757 1641.76 283.975 1641.33 283.318C1640.92 282.638 1640.37 282.117 1639.69 281.754C1639.01 281.369 1638.25 281.176 1637.42 281.176C1636.6 281.176 1635.85 281.369 1635.17 281.754C1634.51 282.117 1633.97 282.638 1633.54 283.318C1633.13 283.975 1632.88 284.757 1632.79 285.664ZM1648.32 290.73C1648.32 289.574 1648.63 288.565 1649.27 287.704C1649.93 286.82 1650.83 286.14 1651.99 285.664C1653.14 285.188 1654.47 284.95 1655.97 284.95C1656.71 284.95 1657.47 285.007 1658.24 285.12C1659.02 285.233 1659.68 285.415 1660.25 285.664V284.712C1660.25 283.579 1659.91 282.706 1659.23 282.094C1658.57 281.482 1657.59 281.176 1656.27 281.176C1655.3 281.176 1654.37 281.346 1653.48 281.686C1652.6 282.026 1651.67 282.525 1650.7 283.182L1649.23 280.19C1650.41 279.419 1651.61 278.841 1652.84 278.456C1654.09 278.071 1655.39 277.878 1656.75 277.878C1659.29 277.878 1661.26 278.513 1662.66 279.782C1664.09 281.051 1664.81 282.865 1664.81 285.222V290.9C1664.81 291.376 1664.89 291.716 1665.04 291.92C1665.23 292.124 1665.51 292.249 1665.89 292.294V296C1665.49 296.068 1665.11 296.125 1664.77 296.17C1664.46 296.215 1664.18 296.238 1663.96 296.238C1663.05 296.238 1662.36 296.034 1661.88 295.626C1661.43 295.218 1661.15 294.719 1661.03 294.13L1660.93 293.212C1660.16 294.209 1659.2 294.98 1658.04 295.524C1656.88 296.068 1655.71 296.34 1654.5 296.34C1653.33 296.34 1652.26 296.102 1651.31 295.626C1650.38 295.127 1649.64 294.459 1649.1 293.62C1648.58 292.759 1648.32 291.795 1648.32 290.73ZM1659.4 291.648C1659.65 291.376 1659.85 291.104 1660.01 290.832C1660.17 290.56 1660.25 290.311 1660.25 290.084V288.282C1659.71 288.055 1659.12 287.885 1658.48 287.772C1657.85 287.636 1657.25 287.568 1656.68 287.568C1655.5 287.568 1654.53 287.829 1653.76 288.35C1653.01 288.849 1652.63 289.517 1652.63 290.356C1652.63 290.809 1652.76 291.24 1653.01 291.648C1653.26 292.056 1653.62 292.385 1654.1 292.634C1654.57 292.883 1655.14 293.008 1655.8 293.008C1656.48 293.008 1657.15 292.883 1657.8 292.634C1658.46 292.362 1658.99 292.033 1659.4 291.648Z" fill="#36B5C8"/>
<path d="M1558.94 391.061C1559.53 391.646 1560.47 391.646 1561.06 391.061L1570.61 381.515C1571.19 380.929 1571.19 379.979 1570.61 379.393C1570.02 378.808 1569.07 378.808 1568.49 379.393L1560 387.879L1551.51 379.393C1550.93 378.808 1549.98 378.808 1549.39 379.393C1548.81 379.979 1548.81 380.929 1549.39 381.515L1558.94 391.061ZM1558.5 340L1558.5 390L1561.5 390L1561.5 340L1558.5 340Z" fill="#36B5C8"/>
<path d="M1678.44 652.264H1670.35V673H1668.11V652.264H1660.01V650.28H1678.44V652.264ZM1684.91 673.32C1683.72 673.32 1682.61 673.096 1681.58 672.648C1680.58 672.179 1679.7 671.549 1678.96 670.76C1678.23 669.949 1677.67 669.032 1677.26 668.008C1676.86 666.963 1676.65 665.864 1676.65 664.712C1676.65 663.517 1676.86 662.408 1677.26 661.384C1677.67 660.339 1678.24 659.421 1678.99 658.632C1679.74 657.821 1680.61 657.192 1681.61 656.744C1682.64 656.275 1683.75 656.04 1684.94 656.04C1686.14 656.04 1687.24 656.275 1688.24 656.744C1689.24 657.192 1690.12 657.821 1690.86 658.632C1691.61 659.421 1692.18 660.339 1692.59 661.384C1693 662.408 1693.2 663.517 1693.2 664.712C1693.2 665.864 1693 666.963 1692.59 668.008C1692.18 669.032 1691.61 669.949 1690.86 670.76C1690.14 671.549 1689.26 672.179 1688.24 672.648C1687.24 673.096 1686.13 673.32 1684.91 673.32ZM1678.86 664.744C1678.86 665.981 1679.13 667.112 1679.66 668.136C1680.22 669.139 1680.95 669.939 1681.87 670.536C1682.79 671.112 1683.8 671.4 1684.91 671.4C1686.02 671.4 1687.03 671.101 1687.95 670.504C1688.87 669.907 1689.6 669.096 1690.16 668.072C1690.71 667.027 1690.99 665.896 1690.99 664.68C1690.99 663.443 1690.71 662.312 1690.16 661.288C1689.6 660.264 1688.87 659.453 1687.95 658.856C1687.03 658.259 1686.02 657.96 1684.91 657.96C1683.8 657.96 1682.79 658.269 1681.87 658.888C1680.97 659.507 1680.25 660.328 1679.69 661.352C1679.14 662.355 1678.86 663.485 1678.86 664.744ZM1705.35 673.32C1703.96 673.32 1702.71 672.957 1701.61 672.232C1700.52 671.507 1699.65 670.611 1699.01 669.544V679.816H1696.84V656.328H1698.79V659.56C1699.45 658.515 1700.34 657.672 1701.45 657.032C1702.55 656.371 1703.74 656.04 1705 656.04C1706.15 656.04 1707.21 656.285 1708.17 656.776C1709.13 657.245 1709.96 657.885 1710.66 658.696C1711.37 659.507 1711.91 660.435 1712.29 661.48C1712.7 662.504 1712.9 663.571 1712.9 664.68C1712.9 666.237 1712.58 667.677 1711.94 669C1711.32 670.301 1710.45 671.347 1709.32 672.136C1708.19 672.925 1706.86 673.32 1705.35 673.32ZM1704.74 671.4C1705.66 671.4 1706.48 671.219 1707.21 670.856C1707.93 670.472 1708.55 669.96 1709.06 669.32C1709.59 668.68 1710 667.965 1710.28 667.176C1710.55 666.365 1710.69 665.533 1710.69 664.68C1710.69 663.784 1710.53 662.931 1710.21 662.12C1709.91 661.309 1709.48 660.595 1708.9 659.976C1708.33 659.357 1707.66 658.867 1706.92 658.504C1706.17 658.141 1705.36 657.96 1704.49 657.96C1703.93 657.96 1703.35 658.067 1702.76 658.28C1702.16 658.493 1701.58 658.803 1701.03 659.208C1700.5 659.592 1700.05 660.029 1699.69 660.52C1699.32 661.011 1699.1 661.533 1699.01 662.088V667.208C1699.35 667.997 1699.81 668.712 1700.39 669.352C1700.97 669.971 1701.63 670.472 1702.37 670.856C1703.14 671.219 1703.93 671.4 1704.74 671.4ZM1723.69 673.32C1722.5 673.32 1721.39 673.096 1720.36 672.648C1719.36 672.179 1718.49 671.549 1717.74 670.76C1717.01 669.949 1716.45 669.032 1716.04 668.008C1715.64 666.963 1715.44 665.864 1715.44 664.712C1715.44 663.517 1715.64 662.408 1716.04 661.384C1716.45 660.339 1717.02 659.421 1717.77 658.632C1718.52 657.821 1719.39 657.192 1720.4 656.744C1721.42 656.275 1722.53 656.04 1723.72 656.04C1724.92 656.04 1726.02 656.275 1727.02 656.744C1728.02 657.192 1728.9 657.821 1729.64 658.632C1730.39 659.421 1730.97 660.339 1731.37 661.384C1731.78 662.408 1731.98 663.517 1731.98 664.712C1731.98 665.864 1731.78 666.963 1731.37 668.008C1730.97 669.032 1730.39 669.949 1729.64 670.76C1728.92 671.549 1728.04 672.179 1727.02 672.648C1726.02 673.096 1724.91 673.32 1723.69 673.32ZM1717.64 664.744C1717.64 665.981 1717.91 667.112 1718.44 668.136C1719 669.139 1719.73 669.939 1720.65 670.536C1721.57 671.112 1722.58 671.4 1723.69 671.4C1724.8 671.4 1725.81 671.101 1726.73 670.504C1727.65 669.907 1728.38 669.096 1728.94 668.072C1729.49 667.027 1729.77 665.896 1729.77 664.68C1729.77 663.443 1729.49 662.312 1728.94 661.288C1728.38 660.264 1727.65 659.453 1726.73 658.856C1725.81 658.259 1724.8 657.96 1723.69 657.96C1722.58 657.96 1721.57 658.269 1720.65 658.888C1719.76 659.507 1719.03 660.328 1718.48 661.352C1717.92 662.355 1717.64 663.485 1717.64 664.744ZM1742.31 673.224C1741.18 673.224 1740.13 672.989 1739.17 672.52C1738.21 672.051 1737.38 671.421 1736.67 670.632C1735.99 669.821 1735.46 668.904 1735.07 667.88C1734.69 666.856 1734.5 665.8 1734.5 664.712C1734.5 663.539 1734.68 662.44 1735.04 661.416C1735.43 660.371 1735.96 659.443 1736.64 658.632C1737.35 657.821 1738.17 657.192 1739.11 656.744C1740.05 656.275 1741.09 656.04 1742.24 656.04C1743.67 656.04 1744.91 656.403 1745.95 657.128C1747.02 657.853 1747.92 658.749 1748.64 659.816V656.328H1750.59V673.064C1750.59 674.6 1750.22 675.891 1749.47 676.936C1748.75 678.003 1747.76 678.803 1746.5 679.336C1745.26 679.869 1743.91 680.136 1742.43 680.136C1740.54 680.136 1739 679.795 1737.83 679.112C1736.65 678.429 1735.69 677.512 1734.95 676.36L1736.29 675.304C1736.95 676.349 1737.83 677.128 1738.91 677.64C1740.02 678.152 1741.2 678.408 1742.43 678.408C1743.52 678.408 1744.51 678.205 1745.41 677.8C1746.33 677.416 1747.05 676.829 1747.59 676.04C1748.14 675.251 1748.42 674.259 1748.42 673.064V669.768C1747.78 670.813 1746.9 671.656 1745.79 672.296C1744.69 672.915 1743.52 673.224 1742.31 673.224ZM1742.91 671.4C1743.58 671.4 1744.21 671.283 1744.8 671.048C1745.42 670.813 1745.99 670.504 1746.5 670.12C1747.01 669.715 1747.44 669.267 1747.78 668.776C1748.12 668.285 1748.33 667.784 1748.42 667.272V662.12C1748.1 661.309 1747.64 660.595 1747.04 659.976C1746.45 659.336 1745.76 658.845 1744.99 658.504C1744.25 658.141 1743.47 657.96 1742.66 657.96C1741.72 657.96 1740.88 658.163 1740.13 658.568C1739.41 658.952 1738.79 659.475 1738.27 660.136C1737.78 660.776 1737.4 661.501 1737.12 662.312C1736.85 663.123 1736.71 663.933 1736.71 664.744C1736.71 665.64 1736.87 666.493 1737.19 667.304C1737.51 668.093 1737.94 668.808 1738.5 669.448C1739.07 670.067 1739.74 670.547 1740.48 670.888C1741.25 671.229 1742.06 671.4 1742.91 671.4ZM1763.72 658.248C1762.27 658.291 1760.99 658.696 1759.88 659.464C1758.79 660.232 1758.02 661.288 1757.58 662.632V673H1755.4V656.328H1757.45V660.328C1758.02 659.155 1758.78 658.205 1759.72 657.48C1760.68 656.755 1761.69 656.349 1762.76 656.264C1762.97 656.243 1763.15 656.232 1763.3 656.232C1763.47 656.232 1763.61 656.243 1763.72 656.264V658.248ZM1765.21 668.2C1765.21 667.155 1765.51 666.259 1766.11 665.512C1766.71 664.744 1767.53 664.157 1768.57 663.752C1769.64 663.325 1770.87 663.112 1772.25 663.112C1773.06 663.112 1773.91 663.176 1774.78 663.304C1775.65 663.432 1776.43 663.624 1777.12 663.88V662.472C1777.12 661.064 1776.7 659.944 1775.87 659.112C1775.04 658.28 1773.88 657.864 1772.41 657.864C1771.52 657.864 1770.63 658.035 1769.76 658.376C1768.9 658.696 1768.01 659.176 1767.07 659.816L1766.24 658.28C1767.32 657.533 1768.39 656.979 1769.44 656.616C1770.48 656.232 1771.55 656.04 1772.64 656.04C1774.68 656.04 1776.31 656.627 1777.5 657.8C1778.69 658.973 1779.29 660.595 1779.29 662.664V670.376C1779.29 670.675 1779.36 670.899 1779.48 671.048C1779.61 671.176 1779.81 671.251 1780.09 671.272V673C1779.86 673.021 1779.65 673.043 1779.48 673.064C1779.31 673.085 1779.19 673.085 1779.1 673.064C1778.57 673.043 1778.16 672.872 1777.88 672.552C1777.61 672.232 1777.46 671.891 1777.44 671.528L1777.4 670.312C1776.66 671.272 1775.69 672.019 1774.49 672.552C1773.3 673.064 1772.08 673.32 1770.84 673.32C1769.78 673.32 1768.81 673.096 1767.93 672.648C1767.08 672.179 1766.41 671.56 1765.92 670.792C1765.45 670.003 1765.21 669.139 1765.21 668.2ZM1776.38 669.48C1776.61 669.181 1776.8 668.893 1776.92 668.616C1777.05 668.339 1777.12 668.093 1777.12 667.88V665.448C1776.39 665.171 1775.63 664.957 1774.84 664.808C1774.08 664.659 1773.3 664.584 1772.51 664.584C1770.95 664.584 1769.69 664.893 1768.73 665.512C1767.77 666.131 1767.29 666.973 1767.29 668.04C1767.29 668.659 1767.45 669.245 1767.77 669.8C1768.09 670.333 1768.56 670.781 1769.18 671.144C1769.8 671.485 1770.52 671.656 1771.36 671.656C1772.4 671.656 1773.37 671.453 1774.27 671.048C1775.19 670.643 1775.89 670.12 1776.38 669.48ZM1792.51 673.32C1791.12 673.32 1789.87 672.957 1788.76 672.232C1787.67 671.507 1786.81 670.611 1786.17 669.544V679.816H1783.99V656.328H1785.95V659.56C1786.61 658.515 1787.49 657.672 1788.6 657.032C1789.71 656.371 1790.9 656.04 1792.15 656.04C1793.31 656.04 1794.36 656.285 1795.32 656.776C1796.28 657.245 1797.11 657.885 1797.82 658.696C1798.52 659.507 1799.07 660.435 1799.45 661.48C1799.86 662.504 1800.06 663.571 1800.06 664.68C1800.06 666.237 1799.74 667.677 1799.1 669C1798.48 670.301 1797.6 671.347 1796.47 672.136C1795.34 672.925 1794.02 673.32 1792.51 673.32ZM1791.9 671.4C1792.82 671.4 1793.64 671.219 1794.36 670.856C1795.09 670.472 1795.71 669.96 1796.22 669.32C1796.75 668.68 1797.16 667.965 1797.43 667.176C1797.71 666.365 1797.85 665.533 1797.85 664.68C1797.85 663.784 1797.69 662.931 1797.37 662.12C1797.07 661.309 1796.63 660.595 1796.06 659.976C1795.48 659.357 1794.82 658.867 1794.07 658.504C1793.33 658.141 1792.52 657.96 1791.64 657.96C1791.09 657.96 1790.51 658.067 1789.91 658.28C1789.32 658.493 1788.74 658.803 1788.19 659.208C1787.65 659.592 1787.2 660.029 1786.84 660.52C1786.48 661.011 1786.26 661.533 1786.17 662.088V667.208C1786.51 667.997 1786.97 668.712 1787.55 669.352C1788.12 669.971 1788.78 670.472 1789.53 670.856C1790.3 671.219 1791.09 671.4 1791.9 671.4ZM1817.76 673H1815.58V663.688C1815.58 661.811 1815.25 660.403 1814.59 659.464C1813.93 658.504 1812.98 658.024 1811.74 658.024C1810.93 658.024 1810.12 658.237 1809.31 658.664C1808.52 659.069 1807.82 659.635 1807.2 660.36C1806.6 661.064 1806.18 661.875 1805.92 662.792V673H1803.74V649.64H1805.92V660.104C1806.58 658.867 1807.5 657.885 1808.67 657.16C1809.87 656.413 1811.14 656.04 1812.48 656.04C1813.44 656.04 1814.25 656.211 1814.91 656.552C1815.59 656.893 1816.14 657.395 1816.54 658.056C1816.97 658.696 1817.28 659.453 1817.47 660.328C1817.66 661.181 1817.76 662.152 1817.76 663.24V673ZM1822.4 673V656.328H1824.58V673H1822.4ZM1822.4 652.84V649.64H1824.58V652.84H1822.4ZM1836.6 673.32C1835.38 673.32 1834.26 673.096 1833.24 672.648C1832.24 672.179 1831.35 671.539 1830.58 670.728C1829.84 669.917 1829.25 668.989 1828.82 667.944C1828.42 666.899 1828.22 665.789 1828.22 664.616C1828.22 663.037 1828.57 661.597 1829.27 660.296C1829.98 658.995 1830.96 657.96 1832.22 657.192C1833.48 656.424 1834.93 656.04 1836.57 656.04C1838.13 656.04 1839.5 656.403 1840.7 657.128C1841.89 657.832 1842.78 658.792 1843.35 660.008L1841.24 660.68C1840.77 659.827 1840.11 659.165 1839.26 658.696C1838.42 658.205 1837.5 657.96 1836.47 657.96C1835.36 657.96 1834.35 658.248 1833.43 658.824C1832.52 659.4 1831.78 660.189 1831.22 661.192C1830.69 662.195 1830.42 663.336 1830.42 664.616C1830.42 665.875 1830.7 667.016 1831.26 668.04C1831.81 669.064 1832.55 669.885 1833.46 670.504C1834.38 671.101 1835.4 671.4 1836.5 671.4C1837.23 671.4 1837.92 671.272 1838.58 671.016C1839.27 670.76 1839.85 670.419 1840.34 669.992C1840.86 669.544 1841.2 669.064 1841.37 668.552L1843.51 669.192C1843.21 669.981 1842.71 670.696 1842.01 671.336C1841.33 671.955 1840.52 672.445 1839.58 672.808C1838.66 673.149 1837.67 673.32 1836.6 673.32ZM1697.77 711.16C1696.17 711.16 1694.71 710.84 1693.41 710.2C1692.11 709.56 1690.99 708.696 1690.05 707.608C1689.11 706.499 1688.39 705.261 1687.88 703.896C1687.37 702.509 1687.11 701.091 1687.11 699.64C1687.11 698.125 1687.38 696.685 1687.91 695.32C1688.44 693.933 1689.19 692.707 1690.15 691.64C1691.13 690.552 1692.27 689.699 1693.57 689.08C1694.87 688.44 1696.28 688.12 1697.8 688.12C1699.4 688.12 1700.85 688.451 1702.15 689.112C1703.45 689.773 1704.56 690.659 1705.48 691.768C1706.42 692.877 1707.14 694.115 1707.65 695.48C1708.17 696.845 1708.42 698.243 1708.42 699.672C1708.42 701.187 1708.15 702.637 1707.62 704.024C1707.09 705.389 1706.34 706.616 1705.38 707.704C1704.42 708.771 1703.29 709.613 1701.99 710.232C1700.69 710.851 1699.28 711.16 1697.77 711.16ZM1689.35 699.64C1689.35 700.877 1689.55 702.072 1689.96 703.224C1690.36 704.355 1690.94 705.368 1691.69 706.264C1692.43 707.139 1693.32 707.843 1694.34 708.376C1695.39 708.888 1696.53 709.144 1697.77 709.144C1699.07 709.144 1700.23 708.877 1701.25 708.344C1702.3 707.789 1703.18 707.064 1703.91 706.168C1704.66 705.251 1705.22 704.227 1705.61 703.096C1705.99 701.965 1706.18 700.813 1706.18 699.64C1706.18 698.403 1705.98 697.219 1705.57 696.088C1705.17 694.957 1704.58 693.944 1703.81 693.048C1703.07 692.152 1702.18 691.448 1701.16 690.936C1700.13 690.424 1699 690.168 1697.77 690.168C1696.49 690.168 1695.32 690.435 1694.28 690.968C1693.25 691.501 1692.37 692.227 1691.62 693.144C1690.9 694.04 1690.33 695.053 1689.93 696.184C1689.54 697.315 1689.35 698.467 1689.35 699.64ZM1720.36 711.32C1719.06 711.32 1717.85 710.989 1716.74 710.328C1715.63 709.645 1714.77 708.792 1714.15 707.768V711H1712.2V687.64H1714.37V697.816C1715.12 696.685 1716.02 695.779 1717.06 695.096C1718.11 694.392 1719.32 694.04 1720.71 694.04C1721.88 694.04 1722.93 694.285 1723.84 694.776C1724.78 695.267 1725.58 695.928 1726.24 696.76C1726.91 697.571 1727.41 698.499 1727.75 699.544C1728.09 700.568 1728.26 701.624 1728.26 702.712C1728.26 703.885 1728.06 704.984 1727.65 706.008C1727.27 707.032 1726.71 707.949 1725.99 708.76C1725.26 709.549 1724.42 710.179 1723.46 710.648C1722.52 711.096 1721.49 711.32 1720.36 711.32ZM1719.84 709.4C1720.74 709.4 1721.57 709.219 1722.34 708.856C1723.11 708.493 1723.77 707.992 1724.32 707.352C1724.88 706.712 1725.31 705.997 1725.6 705.208C1725.9 704.397 1726.05 703.565 1726.05 702.712C1726.05 701.539 1725.8 700.44 1725.28 699.416C1724.79 698.371 1724.1 697.539 1723.2 696.92C1722.33 696.28 1721.3 695.96 1720.1 695.96C1719.25 695.96 1718.45 696.152 1717.7 696.536C1716.98 696.92 1716.32 697.432 1715.75 698.072C1715.19 698.691 1714.74 699.373 1714.37 700.12V705.304C1714.46 705.88 1714.68 706.424 1715.04 706.936C1715.41 707.427 1715.86 707.853 1716.39 708.216C1716.94 708.579 1717.52 708.867 1718.12 709.08C1718.71 709.293 1719.29 709.4 1719.84 709.4ZM1737.42 711.32C1736.05 711.32 1734.78 711.096 1733.61 710.648C1732.44 710.2 1731.42 709.517 1730.57 708.6L1731.47 707.064C1732.41 707.939 1733.34 708.579 1734.28 708.984C1735.24 709.368 1736.26 709.56 1737.32 709.56C1738.62 709.56 1739.68 709.304 1740.49 708.792C1741.3 708.259 1741.71 707.501 1741.71 706.52C1741.71 705.859 1741.5 705.357 1741.1 705.016C1740.71 704.653 1740.15 704.365 1739.4 704.152C1738.68 703.917 1737.8 703.672 1736.78 703.416C1735.63 703.096 1734.66 702.765 1733.87 702.424C1733.1 702.061 1732.51 701.613 1732.11 701.08C1731.72 700.525 1731.53 699.811 1731.53 698.936C1731.53 697.848 1731.8 696.952 1732.33 696.248C1732.89 695.523 1733.63 694.979 1734.57 694.616C1735.53 694.232 1736.6 694.04 1737.77 694.04C1739.05 694.04 1740.18 694.243 1741.16 694.648C1742.14 695.053 1742.94 695.619 1743.56 696.344L1742.51 697.816C1741.91 697.133 1741.19 696.632 1740.36 696.312C1739.55 695.971 1738.65 695.8 1737.64 695.8C1736.96 695.8 1736.31 695.896 1735.69 696.088C1735.07 696.259 1734.56 696.557 1734.15 696.984C1733.77 697.389 1733.58 697.955 1733.58 698.68C1733.58 699.277 1733.73 699.747 1734.03 700.088C1734.33 700.408 1734.77 700.685 1735.37 700.92C1735.97 701.133 1736.7 701.368 1737.58 701.624C1738.84 701.965 1739.94 702.317 1740.87 702.68C1741.81 703.021 1742.54 703.469 1743.05 704.024C1743.56 704.579 1743.82 705.357 1743.82 706.36C1743.82 707.917 1743.23 709.133 1742.06 710.008C1740.89 710.883 1739.34 711.32 1737.42 711.32ZM1755.42 710.2C1755.24 710.264 1754.98 710.381 1754.62 710.552C1754.25 710.723 1753.82 710.872 1753.3 711C1752.79 711.128 1752.24 711.192 1751.64 711.192C1751.02 711.192 1750.43 711.075 1749.88 710.84C1749.35 710.605 1748.92 710.253 1748.6 709.784C1748.28 709.293 1748.12 708.696 1748.12 707.992V696.056H1745.82V694.328H1748.12V688.696H1750.3V694.328H1754.14V696.056H1750.3V707.384C1750.34 707.981 1750.55 708.429 1750.94 708.728C1751.34 709.027 1751.8 709.176 1752.31 709.176C1752.91 709.176 1753.45 709.08 1753.94 708.888C1754.43 708.675 1754.73 708.525 1754.84 708.44L1755.42 710.2ZM1756.79 706.2C1756.79 705.155 1757.09 704.259 1757.69 703.512C1758.28 702.744 1759.11 702.157 1760.15 701.752C1761.22 701.325 1762.44 701.112 1763.83 701.112C1764.64 701.112 1765.48 701.176 1766.36 701.304C1767.23 701.432 1768.01 701.624 1768.69 701.88V700.472C1768.69 699.064 1768.28 697.944 1767.45 697.112C1766.61 696.28 1765.46 695.864 1763.99 695.864C1763.09 695.864 1762.21 696.035 1761.33 696.376C1760.48 696.696 1759.59 697.176 1758.65 697.816L1757.81 696.28C1758.9 695.533 1759.97 694.979 1761.01 694.616C1762.06 694.232 1763.13 694.04 1764.21 694.04C1766.26 694.04 1767.88 694.627 1769.08 695.8C1770.27 696.973 1770.87 698.595 1770.87 700.664V708.376C1770.87 708.675 1770.93 708.899 1771.06 709.048C1771.19 709.176 1771.39 709.251 1771.67 709.272V711C1771.44 711.021 1771.23 711.043 1771.06 711.064C1770.89 711.085 1770.76 711.085 1770.68 711.064C1770.15 711.043 1769.74 710.872 1769.46 710.552C1769.19 710.232 1769.04 709.891 1769.01 709.528L1768.98 708.312C1768.24 709.272 1767.27 710.019 1766.07 710.552C1764.88 711.064 1763.66 711.32 1762.42 711.32C1761.36 711.32 1760.39 711.096 1759.51 710.648C1758.66 710.179 1757.99 709.56 1757.49 708.792C1757.03 708.003 1756.79 707.139 1756.79 706.2ZM1767.96 707.48C1768.19 707.181 1768.37 706.893 1768.5 706.616C1768.63 706.339 1768.69 706.093 1768.69 705.88V703.448C1767.97 703.171 1767.21 702.957 1766.42 702.808C1765.65 702.659 1764.88 702.584 1764.09 702.584C1762.53 702.584 1761.27 702.893 1760.31 703.512C1759.35 704.131 1758.87 704.973 1758.87 706.04C1758.87 706.659 1759.03 707.245 1759.35 707.8C1759.67 708.333 1760.14 708.781 1760.76 709.144C1761.38 709.485 1762.1 709.656 1762.93 709.656C1763.98 709.656 1764.95 709.453 1765.85 709.048C1766.76 708.643 1767.47 708.12 1767.96 707.48ZM1782.8 711.32C1781.59 711.32 1780.47 711.096 1779.44 710.648C1778.44 710.179 1777.56 709.539 1776.79 708.728C1776.04 707.917 1775.45 706.989 1775.03 705.944C1774.62 704.899 1774.42 703.789 1774.42 702.616C1774.42 701.037 1774.77 699.597 1775.48 698.296C1776.18 696.995 1777.16 695.96 1778.42 695.192C1779.68 694.424 1781.13 694.04 1782.77 694.04C1784.33 694.04 1785.71 694.403 1786.9 695.128C1788.09 695.832 1788.98 696.792 1789.56 698.008L1787.44 698.68C1786.97 697.827 1786.31 697.165 1785.46 696.696C1784.63 696.205 1783.7 695.96 1782.68 695.96C1781.57 695.96 1780.55 696.248 1779.64 696.824C1778.72 697.4 1777.98 698.189 1777.43 699.192C1776.89 700.195 1776.63 701.336 1776.63 702.616C1776.63 703.875 1776.91 705.016 1777.46 706.04C1778.01 707.064 1778.75 707.885 1779.67 708.504C1780.59 709.101 1781.6 709.4 1782.71 709.4C1783.43 709.4 1784.13 709.272 1784.79 709.016C1785.47 708.76 1786.06 708.419 1786.55 707.992C1787.06 707.544 1787.4 707.064 1787.57 706.552L1789.72 707.192C1789.42 707.981 1788.92 708.696 1788.21 709.336C1787.53 709.955 1786.72 710.445 1785.78 710.808C1784.86 711.149 1783.87 711.32 1782.8 711.32ZM1793.23 687.64H1795.41V707.224C1795.41 708.056 1795.56 708.6 1795.85 708.856C1796.15 709.112 1796.52 709.24 1796.94 709.24C1797.33 709.24 1797.71 709.197 1798.09 709.112C1798.48 709.027 1798.81 708.941 1799.09 708.856L1799.47 710.616C1799.07 710.787 1798.56 710.925 1797.97 711.032C1797.39 711.139 1796.89 711.192 1796.46 711.192C1795.48 711.192 1794.69 710.904 1794.09 710.328C1793.52 709.752 1793.23 708.963 1793.23 707.96V687.64ZM1809.05 711.32C1807.86 711.32 1806.75 711.096 1805.73 710.648C1804.7 710.179 1803.82 709.549 1803.07 708.76C1802.32 707.949 1801.74 707.021 1801.31 705.976C1800.9 704.931 1800.7 703.811 1800.7 702.616C1800.7 701.059 1801.05 699.629 1801.76 698.328C1802.48 697.027 1803.47 695.992 1804.73 695.224C1805.99 694.435 1807.42 694.04 1809.02 694.04C1810.66 694.04 1812.09 694.435 1813.31 695.224C1814.55 696.013 1815.52 697.059 1816.22 698.36C1816.93 699.64 1817.28 701.048 1817.28 702.584C1817.28 702.755 1817.28 702.925 1817.28 703.096C1817.28 703.245 1817.27 703.363 1817.25 703.448H1802.97C1803.08 704.643 1803.41 705.709 1803.97 706.648C1804.54 707.565 1805.28 708.301 1806.17 708.856C1807.09 709.389 1808.08 709.656 1809.15 709.656C1810.24 709.656 1811.26 709.379 1812.22 708.824C1813.2 708.269 1813.89 707.544 1814.27 706.648L1816.16 707.16C1815.82 707.949 1815.29 708.664 1814.59 709.304C1813.89 709.944 1813.05 710.445 1812.09 710.808C1811.15 711.149 1810.14 711.32 1809.05 711.32ZM1802.91 701.88H1815.23C1815.14 700.664 1814.81 699.597 1814.24 698.68C1813.68 697.763 1812.95 697.048 1812.03 696.536C1811.13 696.003 1810.14 695.736 1809.05 695.736C1807.97 695.736 1806.97 696.003 1806.08 696.536C1805.18 697.048 1804.45 697.773 1803.87 698.712C1803.31 699.629 1802.99 700.685 1802.91 701.88Z" fill="#55504D"/>
<path d="M670.255 641.998C669.995 641.703 669.692 641.443 669.345 641.218C668.999 640.975 668.609 640.767 668.175 640.594C667.742 640.421 667.274 640.282 666.771 640.178C666.286 640.074 665.766 640.022 665.211 640.022C663.599 640.022 662.412 640.334 661.649 640.958C660.904 641.565 660.531 642.397 660.531 643.454C660.531 644.182 660.705 644.754 661.051 645.17C661.415 645.586 661.979 645.924 662.741 646.184C663.504 646.444 664.475 646.713 665.653 646.99C666.971 647.267 668.106 647.597 669.059 647.978C670.013 648.359 670.749 648.879 671.269 649.538C671.789 650.179 672.049 651.055 672.049 652.164C672.049 653.013 671.885 653.75 671.555 654.374C671.226 654.998 670.767 655.518 670.177 655.934C669.588 656.35 668.886 656.662 668.071 656.87C667.257 657.061 666.364 657.156 665.393 657.156C664.44 657.156 663.521 657.061 662.637 656.87C661.771 656.662 660.947 656.367 660.167 655.986C659.387 655.587 658.659 655.085 657.983 654.478L658.893 652.996C659.223 653.343 659.613 653.672 660.063 653.984C660.531 654.279 661.043 654.547 661.597 654.79C662.169 655.033 662.776 655.223 663.417 655.362C664.076 655.483 664.752 655.544 665.445 655.544C666.919 655.544 668.063 655.275 668.877 654.738C669.709 654.201 670.125 653.403 670.125 652.346C670.125 651.583 669.917 650.977 669.501 650.526C669.085 650.058 668.461 649.677 667.629 649.382C666.797 649.087 665.775 648.801 664.561 648.524C663.279 648.229 662.195 647.9 661.311 647.536C660.427 647.172 659.76 646.695 659.309 646.106C658.876 645.499 658.659 644.702 658.659 643.714C658.659 642.57 658.937 641.608 659.491 640.828C660.063 640.031 660.843 639.433 661.831 639.034C662.819 638.618 663.955 638.41 665.237 638.41C666.052 638.41 666.806 638.497 667.499 638.67C668.21 638.826 668.86 639.06 669.449 639.372C670.056 639.684 670.619 640.074 671.139 640.542L670.255 641.998ZM686.282 657H684.514V649.434C684.514 647.839 684.28 646.678 683.812 645.95C683.344 645.205 682.608 644.832 681.602 644.832C680.909 644.832 680.224 645.005 679.548 645.352C678.872 645.681 678.274 646.141 677.754 646.73C677.252 647.302 676.888 647.961 676.662 648.706V657H674.894V643.454H676.506V646.522C676.87 645.863 677.347 645.291 677.936 644.806C678.526 644.303 679.193 643.913 679.938 643.636C680.684 643.359 681.455 643.22 682.252 643.22C682.998 643.22 683.63 643.359 684.15 643.636C684.67 643.913 685.086 644.312 685.398 644.832C685.71 645.335 685.936 645.95 686.074 646.678C686.213 647.389 686.282 648.186 686.282 649.07V657ZM695.825 657.26C694.854 657.26 693.953 657.078 693.121 656.714C692.306 656.333 691.595 655.821 690.989 655.18C690.399 654.521 689.94 653.776 689.611 652.944C689.281 652.095 689.117 651.202 689.117 650.266C689.117 649.295 689.281 648.394 689.611 647.562C689.94 646.713 690.408 645.967 691.015 645.326C691.621 644.667 692.332 644.156 693.147 643.792C693.979 643.411 694.88 643.22 695.851 643.22C696.821 643.22 697.714 643.411 698.529 643.792C699.343 644.156 700.054 644.667 700.661 645.326C701.267 645.967 701.735 646.713 702.065 647.562C702.394 648.394 702.559 649.295 702.559 650.266C702.559 651.202 702.394 652.095 702.065 652.944C701.735 653.776 701.267 654.521 700.661 655.18C700.071 655.821 699.361 656.333 698.529 656.714C697.714 657.078 696.813 657.26 695.825 657.26ZM690.911 650.292C690.911 651.297 691.127 652.216 691.561 653.048C692.011 653.863 692.609 654.513 693.355 654.998C694.1 655.466 694.923 655.7 695.825 655.7C696.726 655.7 697.549 655.457 698.295 654.972C699.04 654.487 699.638 653.828 700.089 652.996C700.539 652.147 700.765 651.228 700.765 650.24C700.765 649.235 700.539 648.316 700.089 647.484C699.638 646.652 699.04 645.993 698.295 645.508C697.549 645.023 696.726 644.78 695.825 644.78C694.923 644.78 694.1 645.031 693.355 645.534C692.627 646.037 692.037 646.704 691.587 647.536C691.136 648.351 690.911 649.269 690.911 650.292ZM722.114 643.454H723.856L718.032 657H716.498L713.664 650.266L710.856 657H709.322L703.498 643.454H705.214L710.154 655.18L712.65 649.07L710.362 643.48H711.948L713.664 647.874L715.406 643.48H716.966L714.704 649.07L717.2 655.18L722.114 643.454ZM737.371 638.54H738.905L746.575 657H744.651L742.259 651.228H733.965L731.599 657H729.649L737.371 638.54ZM741.843 649.798L738.125 640.672L734.355 649.798H741.843ZM754.352 657.26C753.364 657.26 752.454 657.078 751.622 656.714C750.808 656.333 750.088 655.813 749.464 655.154C748.858 654.495 748.381 653.741 748.034 652.892C747.705 652.043 747.54 651.141 747.54 650.188C747.54 648.905 747.826 647.735 748.398 646.678C748.97 645.621 749.768 644.78 750.79 644.156C751.813 643.532 752.992 643.22 754.326 643.22C755.592 643.22 756.71 643.515 757.68 644.104C758.651 644.676 759.37 645.456 759.838 646.444L758.122 646.99C757.741 646.297 757.204 645.759 756.51 645.378C755.834 644.979 755.08 644.78 754.248 644.78C753.347 644.78 752.524 645.014 751.778 645.482C751.033 645.95 750.435 646.591 749.984 647.406C749.551 648.221 749.334 649.148 749.334 650.188C749.334 651.211 749.56 652.138 750.01 652.97C750.461 653.802 751.059 654.469 751.804 654.972C752.55 655.457 753.373 655.7 754.274 655.7C754.864 655.7 755.427 655.596 755.964 655.388C756.519 655.18 756.996 654.903 757.394 654.556C757.81 654.192 758.088 653.802 758.226 653.386L759.968 653.906C759.726 654.547 759.318 655.128 758.746 655.648C758.192 656.151 757.533 656.549 756.77 656.844C756.025 657.121 755.219 657.26 754.352 657.26ZM768.495 657.26C767.507 657.26 766.597 657.078 765.765 656.714C764.95 656.333 764.231 655.813 763.607 655.154C763 654.495 762.524 653.741 762.177 652.892C761.848 652.043 761.683 651.141 761.683 650.188C761.683 648.905 761.969 647.735 762.541 646.678C763.113 645.621 763.91 644.78 764.933 644.156C765.956 643.532 767.134 643.22 768.469 643.22C769.734 643.22 770.852 643.515 771.823 644.104C772.794 644.676 773.513 645.456 773.981 646.444L772.265 646.99C771.884 646.297 771.346 645.759 770.653 645.378C769.977 644.979 769.223 644.78 768.391 644.78C767.49 644.78 766.666 645.014 765.921 645.482C765.176 645.95 764.578 646.591 764.127 647.406C763.694 648.221 763.477 649.148 763.477 650.188C763.477 651.211 763.702 652.138 764.153 652.97C764.604 653.802 765.202 654.469 765.947 654.972C766.692 655.457 767.516 655.7 768.417 655.7C769.006 655.7 769.57 655.596 770.107 655.388C770.662 655.18 771.138 654.903 771.537 654.556C771.953 654.192 772.23 653.802 772.369 653.386L774.111 653.906C773.868 654.547 773.461 655.128 772.889 655.648C772.334 656.151 771.676 656.549 770.913 656.844C770.168 657.121 769.362 657.26 768.495 657.26ZM776.758 651.41V643.454H778.526V651.098C778.526 652.641 778.786 653.793 779.306 654.556C779.844 655.319 780.632 655.7 781.672 655.7C782.366 655.7 783.033 655.553 783.674 655.258C784.333 654.946 784.914 654.513 785.416 653.958C785.919 653.386 786.3 652.727 786.56 651.982V643.454H788.328V654.868C788.328 655.111 788.38 655.293 788.484 655.414C788.588 655.518 788.744 655.579 788.952 655.596V657C788.744 657.017 788.58 657.026 788.458 657.026C788.337 657.043 788.224 657.052 788.12 657.052C787.774 657.017 787.47 656.879 787.21 656.636C786.968 656.393 786.838 656.099 786.82 655.752L786.768 653.932C786.179 654.972 785.373 655.787 784.35 656.376C783.345 656.965 782.253 657.26 781.074 657.26C779.653 657.26 778.578 656.766 777.85 655.778C777.122 654.79 776.758 653.334 776.758 651.41ZM812.476 657H810.708V649.434C810.708 647.857 810.457 646.695 809.954 645.95C809.451 645.205 808.706 644.832 807.718 644.832C806.695 644.832 805.777 645.196 804.962 645.924C804.165 646.652 803.601 647.588 803.272 648.732V657H801.504V649.434C801.504 647.839 801.261 646.678 800.776 645.95C800.291 645.205 799.545 644.832 798.54 644.832C797.535 644.832 796.625 645.187 795.81 645.898C794.995 646.609 794.423 647.545 794.094 648.706V657H792.326V643.454H793.938V646.522C794.51 645.465 795.238 644.65 796.122 644.078C797.023 643.506 798.02 643.22 799.112 643.22C800.239 643.22 801.149 643.541 801.842 644.182C802.535 644.823 802.96 645.664 803.116 646.704C803.74 645.56 804.485 644.693 805.352 644.104C806.236 643.515 807.233 643.22 808.342 643.22C809.105 643.22 809.746 643.359 810.266 643.636C810.803 643.913 811.228 644.312 811.54 644.832C811.869 645.335 812.103 645.95 812.242 646.678C812.398 647.389 812.476 648.186 812.476 649.07V657ZM816.089 651.41V643.454H817.857V651.098C817.857 652.641 818.117 653.793 818.637 654.556C819.174 655.319 819.963 655.7 821.003 655.7C821.696 655.7 822.363 655.553 823.005 655.258C823.663 654.946 824.244 654.513 824.747 653.958C825.249 653.386 825.631 652.727 825.891 651.982V643.454H827.659V654.868C827.659 655.111 827.711 655.293 827.815 655.414C827.919 655.518 828.075 655.579 828.283 655.596V657C828.075 657.017 827.91 657.026 827.789 657.026C827.667 657.043 827.555 657.052 827.451 657.052C827.104 657.017 826.801 656.879 826.541 656.636C826.298 656.393 826.168 656.099 826.151 655.752L826.099 653.932C825.509 654.972 824.703 655.787 823.681 656.376C822.675 656.965 821.583 657.26 820.405 657.26C818.983 657.26 817.909 656.766 817.181 655.778C816.453 654.79 816.089 653.334 816.089 651.41ZM831.734 638.02H833.502V653.932C833.502 654.608 833.623 655.05 833.866 655.258C834.109 655.466 834.403 655.57 834.75 655.57C835.062 655.57 835.374 655.535 835.686 655.466C835.998 655.397 836.267 655.327 836.492 655.258L836.804 656.688C836.475 656.827 836.067 656.939 835.582 657.026C835.114 657.113 834.707 657.156 834.36 657.156C833.563 657.156 832.921 656.922 832.436 656.454C831.968 655.986 831.734 655.345 831.734 654.53V638.02ZM837.648 653.1C837.648 652.251 837.891 651.523 838.376 650.916C838.861 650.292 839.529 649.815 840.378 649.486C841.245 649.139 842.241 648.966 843.368 648.966C844.027 648.966 844.711 649.018 845.422 649.122C846.133 649.226 846.765 649.382 847.32 649.59V648.446C847.32 647.302 846.982 646.392 846.306 645.716C845.63 645.04 844.694 644.702 843.498 644.702C842.77 644.702 842.051 644.841 841.34 645.118C840.647 645.378 839.919 645.768 839.156 646.288L838.48 645.04C839.364 644.433 840.231 643.983 841.08 643.688C841.929 643.376 842.796 643.22 843.68 643.22C845.344 643.22 846.661 643.697 847.632 644.65C848.603 645.603 849.088 646.921 849.088 648.602V654.868C849.088 655.111 849.14 655.293 849.244 655.414C849.348 655.518 849.513 655.579 849.738 655.596V657C849.547 657.017 849.383 657.035 849.244 657.052C849.105 657.069 849.001 657.069 848.932 657.052C848.499 657.035 848.169 656.896 847.944 656.636C847.719 656.376 847.597 656.099 847.58 655.804L847.554 654.816C846.947 655.596 846.159 656.203 845.188 656.636C844.217 657.052 843.229 657.26 842.224 657.26C841.357 657.26 840.569 657.078 839.858 656.714C839.165 656.333 838.619 655.83 838.22 655.206C837.839 654.565 837.648 653.863 837.648 653.1ZM846.722 654.14C846.913 653.897 847.06 653.663 847.164 653.438C847.268 653.213 847.32 653.013 847.32 652.84V650.864C846.731 650.639 846.115 650.465 845.474 650.344C844.85 650.223 844.217 650.162 843.576 650.162C842.311 650.162 841.288 650.413 840.508 650.916C839.728 651.419 839.338 652.103 839.338 652.97C839.338 653.473 839.468 653.949 839.728 654.4C839.988 654.833 840.369 655.197 840.872 655.492C841.375 655.769 841.964 655.908 842.64 655.908C843.489 655.908 844.278 655.743 845.006 655.414C845.751 655.085 846.323 654.66 846.722 654.14ZM859.306 656.35C859.168 656.402 858.951 656.497 858.656 656.636C858.362 656.775 858.006 656.896 857.59 657C857.174 657.104 856.724 657.156 856.238 657.156C855.736 657.156 855.259 657.061 854.808 656.87C854.375 656.679 854.028 656.393 853.768 656.012C853.508 655.613 853.378 655.128 853.378 654.556V644.858H851.506V643.454H853.378V638.878H855.146V643.454H858.266V644.858H855.146V654.062C855.181 654.547 855.354 654.911 855.666 655.154C855.996 655.397 856.368 655.518 856.784 655.518C857.27 655.518 857.712 655.44 858.11 655.284C858.509 655.111 858.752 654.989 858.838 654.92L859.306 656.35ZM861.515 657V643.454H863.283V657H861.515ZM861.515 640.62V638.02H863.283V640.62H861.515ZM872.95 657.26C871.979 657.26 871.078 657.078 870.246 656.714C869.431 656.333 868.72 655.821 868.114 655.18C867.524 654.521 867.065 653.776 866.736 652.944C866.406 652.095 866.242 651.202 866.242 650.266C866.242 649.295 866.406 648.394 866.736 647.562C867.065 646.713 867.533 645.967 868.14 645.326C868.746 644.667 869.457 644.156 870.272 643.792C871.104 643.411 872.005 643.22 872.976 643.22C873.946 643.22 874.839 643.411 875.654 643.792C876.468 644.156 877.179 644.667 877.786 645.326C878.392 645.967 878.86 646.713 879.19 647.562C879.519 648.394 879.684 649.295 879.684 650.266C879.684 651.202 879.519 652.095 879.19 652.944C878.86 653.776 878.392 654.521 877.786 655.18C877.196 655.821 876.486 656.333 875.654 656.714C874.839 657.078 873.938 657.26 872.95 657.26ZM868.036 650.292C868.036 651.297 868.252 652.216 868.686 653.048C869.136 653.863 869.734 654.513 870.48 654.998C871.225 655.466 872.048 655.7 872.95 655.7C873.851 655.7 874.674 655.457 875.42 654.972C876.165 654.487 876.763 653.828 877.214 652.996C877.664 652.147 877.89 651.228 877.89 650.24C877.89 649.235 877.664 648.316 877.214 647.484C876.763 646.652 876.165 645.993 875.42 645.508C874.674 645.023 873.851 644.78 872.95 644.78C872.048 644.78 871.225 645.031 870.48 645.534C869.752 646.037 869.162 646.704 868.712 647.536C868.261 648.351 868.036 649.269 868.036 650.292ZM894.028 657H892.26V649.434C892.26 647.839 892.026 646.678 891.558 645.95C891.09 645.205 890.354 644.832 889.348 644.832C888.655 644.832 887.97 645.005 887.294 645.352C886.618 645.681 886.02 646.141 885.5 646.73C884.998 647.302 884.634 647.961 884.408 648.706V657H882.64V643.454H884.252V646.522C884.616 645.863 885.093 645.291 885.682 644.806C886.272 644.303 886.939 643.913 887.684 643.636C888.43 643.359 889.201 643.22 889.998 643.22C890.744 643.22 891.376 643.359 891.896 643.636C892.416 643.913 892.832 644.312 893.144 644.832C893.456 645.335 893.682 645.95 893.82 646.678C893.959 647.389 894.028 648.186 894.028 649.07V657Z" fill="#BABABA"/>
</g>
<defs>
<clipPath id="clip0_153_2977">
<rect width="1920" height="1080" fill="white"/>
</clipPath>
</defs>
</svg>
